<?xml version="1.0" encoding="utf-8"?>
<!-- Generator: Adobe Illustrator 24.3.0, SVG Export Plug-In . SVG Version: 6.00 Build 0)  -->
<svg version="1.1" id="Objects" xmlns="http://www.w3.org/2000/svg" xmlns:xlink="http://www.w3.org/1999/xlink" x="0px" y="0px"
	 viewBox="0 0 289.8 289.8" style="enable-background:new 0 0 289.8 289.8;" xml:space="preserve">
<style type="text/css">
	.st0{fill:#14684E;}
	.st1{fill:#38AF79;stroke:#14684E;stroke-width:4;stroke-miterlimit:10;}
	.st2{fill:#57D6A1;stroke:#14684E;stroke-width:4;stroke-miterlimit:10;}
	.st3{fill:#BEFEA8;stroke:#14684E;stroke-width:4;stroke-miterlimit:10;}
	.st4{fill:none;stroke:#14684E;stroke-width:4;stroke-miterlimit:10;}
</style>
<g>
	<circle class="st0" cx="144.9" cy="144.9" r="142.9"/>
	<path class="st1" d="M80.6,272.5C130.7,183,99.2,122,99.2,122c-37.6,2.7-66.7,28.6-66.7,28.6c47.6,43.8,29.8,110.9,29.8,110.9
		S75.4,270.6,80.6,272.5z"/>
	<path class="st2" d="M179,86.3c-44-12.9-87.5,5.2-87.5,5.2c36.2,120-10.9,181-10.9,181s28.1,15.2,70,15.2
		C150.6,287.8,213.2,140.1,179,86.3z"/>
	<path class="st3" d="M277.9,92.7c-39.7-50.7-106.4-45-106.4-45c36.2,177.2-74.3,231.9-74.3,231.9s66.7,25.3,124.3-14.1
		C221.5,265.5,318.2,203.9,277.9,92.7z"/>
	<circle class="st4" cx="144.9" cy="144.9" r="142.9"/>
	<g>
		<path class="st4" d="M116.3,284c10.8-7.2,21-17.6,29.5-28.2"/>
		<path class="st4" d="M285.9,122c-21.7-32.5-51.4-47.3-75.1-54.6c-2.1,10-9.9,16.5-20.1,18.1c6.8,73.2-12.4,122.2-31.5,151.8
			c-3.7,5.8-8.2,12.1-13.3,18.4"/>
	</g>
	<path class="st4" d="M226.6,262.1c-4,0.1-7.9-0.4-11.7-1.6"/>
	<path class="st4" d="M214.9,260.5c-1.6-0.5-3.2-1.2-4.8-2c-18.4-9.6-24.2-35-12.9-56.7c11.3-21.8,35.4-31.6,53.9-22
		c11.9,6.2,18.5,18.9,18.7,33"/>
	<path class="st4" d="M178.4,99.4c-7.8-1.8-24.4-4.4-33.1-4.4c-6.7,0-13.1,0.6-18.9,1.4c0,0.4,0.1,0.8,0.1,1.2
		c0,9.2-6.2,16.9-14.6,19.4c16.2,76.2,1.6,123.5-18.9,160.4"/>
	<path class="st4" d="M101.6,134.3c-15.7,2-31.5,8.4-39.4,12.5c1,1.6,1.5,3.6,1.5,5.6c0,3.7-1.8,6.9-4.5,9
		C80,192.8,82.1,229,73.8,268"/>
</g>
</svg>
