<svg xmlns="http://www.w3.org/2000/svg" xmlns:xlink="http://www.w3.org/1999/xlink" width="296" zoomAndPan="magnify" viewBox="0 0 222 171.000002" height="228" preserveAspectRatio="xMidYMid meet" version="1.2"><defs><clipPath id="32e8f5908f"><path d="M 2.136719 1.277344 L 219.863281 1.277344 L 219.863281 168.988281 L 2.136719 168.988281 Z M 2.136719 1.277344 "/></clipPath></defs><g id="7a40281d97"><g clip-rule="nonzero" clip-path="url(#32e8f5908f)"><path style=" stroke:none;fill-rule:evenodd;fill:#000000;fill-opacity:1;" d="M 204.855469 69.445312 L 204.855469 51.175781 C 204.855469 43.574219 198.636719 37.355469 191.03125 37.355469 L 67.105469 37.355469 L 155.808594 27.675781 L 155.808594 11.578125 C 155.808594 8.410156 154.4375 5.683594 151.894531 3.789062 C 149.351562 1.898438 146.347656 1.371094 143.308594 2.285156 L 33.695312 35.273438 C 29.53125 36.527344 26.789062 40.214844 26.789062 44.566406 L 26.789062 75.855469 L 64.03125 75.855469 C 70.414062 75.855469 75.632812 81.074219 75.632812 87.457031 C 75.632812 93.839844 70.410156 99.058594 64.03125 99.058594 L 13.738281 99.058594 C 7.359375 99.0625 2.136719 104.28125 2.136719 110.664062 C 2.136719 117.042969 7.359375 122.265625 13.738281 122.265625 L 96.8125 122.265625 C 103.195312 122.265625 108.414062 127.484375 108.414062 133.867188 C 108.414062 140.246094 103.191406 145.46875 96.8125 145.46875 L 63.019531 145.46875 C 56.636719 145.46875 51.417969 150.6875 51.417969 157.070312 C 51.417969 163.453125 56.640625 168.671875 63.019531 168.671875 L 191.027344 168.671875 C 198.632812 168.671875 204.851562 162.449219 204.851562 154.847656 L 204.851562 136.582031 L 179.210938 136.582031 C 176.949219 136.582031 175.097656 134.730469 175.097656 132.46875 C 175.097656 130.203125 176.949219 128.355469 179.210938 128.355469 L 212.019531 128.355469 C 216.335938 128.355469 219.859375 124.832031 219.859375 120.511719 L 219.859375 85.511719 C 219.859375 81.191406 216.339844 77.667969 212.019531 77.667969 L 164.996094 77.667969 C 162.734375 77.667969 160.878906 75.820312 160.878906 73.554688 C 160.878906 71.292969 162.730469 69.441406 164.996094 69.441406 L 204.855469 69.441406 Z M 163.742188 95.816406 C 159.765625 95.816406 156.542969 99.042969 156.542969 103.019531 C 156.542969 106.992188 159.765625 110.21875 163.742188 110.21875 C 167.71875 110.21875 170.945312 106.992188 170.945312 103.019531 C 170.945312 99.039062 167.71875 95.816406 163.742188 95.816406 Z M 146.628906 103.015625 C 146.628906 93.601562 154.328125 85.898438 163.742188 85.898438 L 211.632812 85.898438 L 211.632812 120.128906 L 163.742188 120.128906 C 154.332031 120.128906 146.628906 112.429688 146.628906 103.015625 Z M 146.628906 103.015625 "/></g></g></svg>