<svg xmlns="http://www.w3.org/2000/svg" xmlns:xlink="http://www.w3.org/1999/xlink" width="323" zoomAndPan="magnify" viewBox="0 0 242.25 85.499998" height="114" preserveAspectRatio="xMidYMid meet" version="1.2"><defs><clipPath id="13d41ac960"><path d="M 1.304688 0.398438 L 110.914062 0.398438 L 110.914062 84.628906 L 1.304688 84.628906 Z M 1.304688 0.398438 "/></clipPath></defs><g id="171588f387"><g clip-rule="nonzero" clip-path="url(#13d41ac960)"><path style=" stroke:none;fill-rule:evenodd;fill:#000000;fill-opacity:1;" d="M 103.246094 34.675781 L 103.246094 25.492188 C 103.246094 21.667969 100.117188 18.539062 96.292969 18.539062 L 33.976562 18.539062 L 78.582031 13.671875 L 78.582031 5.578125 C 78.582031 3.984375 77.890625 2.613281 76.613281 1.664062 C 75.332031 0.710938 73.824219 0.445312 72.296875 0.90625 L 17.175781 17.492188 C 15.078125 18.125 13.699219 19.976562 13.699219 22.167969 L 13.699219 37.898438 L 32.429688 37.898438 C 35.640625 37.898438 38.261719 40.527344 38.261719 43.734375 C 38.261719 46.945312 35.636719 49.566406 32.429688 49.566406 L 7.140625 49.566406 C 3.929688 49.570312 1.304688 52.195312 1.304688 55.402344 C 1.304688 58.613281 3.929688 61.238281 7.140625 61.238281 L 48.914062 61.238281 C 52.125 61.238281 54.746094 63.863281 54.746094 67.070312 C 54.746094 70.28125 52.121094 72.90625 48.914062 72.90625 L 31.921875 72.90625 C 28.710938 72.90625 26.085938 75.53125 26.085938 78.738281 C 26.085938 81.949219 28.714844 84.574219 31.921875 84.574219 L 96.292969 84.574219 C 100.113281 84.574219 103.242188 81.445312 103.242188 77.621094 L 103.242188 68.4375 L 90.347656 68.4375 C 89.210938 68.4375 88.28125 67.507812 88.28125 66.371094 C 88.28125 65.230469 89.210938 64.300781 90.347656 64.300781 L 106.847656 64.300781 C 109.019531 64.300781 110.789062 62.527344 110.789062 60.359375 L 110.789062 42.757812 C 110.789062 40.585938 109.019531 38.8125 106.847656 38.8125 L 83.203125 38.8125 C 82.0625 38.8125 81.132812 37.882812 81.132812 36.746094 C 81.132812 35.605469 82.0625 34.675781 83.203125 34.675781 Z M 82.570312 47.9375 C 80.570312 47.9375 78.949219 49.558594 78.949219 51.558594 C 78.949219 53.558594 80.570312 55.179688 82.570312 55.179688 C 84.570312 55.179688 86.191406 53.558594 86.191406 51.558594 C 86.191406 49.558594 84.570312 47.9375 82.570312 47.9375 Z M 73.964844 51.558594 C 73.964844 46.824219 77.835938 42.949219 82.570312 42.949219 L 106.652344 42.949219 L 106.652344 60.164062 L 82.570312 60.164062 C 77.839844 60.164062 73.964844 56.292969 73.964844 51.558594 Z M 73.964844 51.558594 "/></g><g style="fill:#202d10;fill-opacity:1;"><g transform="translate(123.678471, 47.969699)"><path style="stroke:none" d="M 2.078125 -20.796875 L 6.53125 -20.796875 L 6.53125 -4.015625 L 16.046875 -4.015625 L 16.046875 0 L 2.078125 0 Z M 2.078125 -20.796875 "/></g></g><g style="fill:#202d10;fill-opacity:1;"><g transform="translate(138.471654, 47.969699)"><path style="stroke:none" d="M 8.765625 0.296875 C 7.578125 0.296875 6.503906 0.113281 5.546875 -0.25 C 4.597656 -0.613281 3.785156 -1.140625 3.109375 -1.828125 C 2.441406 -2.523438 1.929688 -3.378906 1.578125 -4.390625 C 1.222656 -5.398438 1.046875 -6.5625 1.046875 -7.875 C 1.046875 -9.175781 1.222656 -10.332031 1.578125 -11.34375 C 1.929688 -12.351562 2.441406 -13.203125 3.109375 -13.890625 C 3.785156 -14.585938 4.597656 -15.117188 5.546875 -15.484375 C 6.503906 -15.859375 7.578125 -16.046875 8.765625 -16.046875 C 9.953125 -16.046875 11.019531 -15.859375 11.96875 -15.484375 C 12.914062 -15.117188 13.726562 -14.585938 14.40625 -13.890625 C 15.082031 -13.203125 15.597656 -12.351562 15.953125 -11.34375 C 16.304688 -10.332031 16.484375 -9.175781 16.484375 -7.875 C 16.484375 -6.5625 16.304688 -5.398438 15.953125 -4.390625 C 15.597656 -3.378906 15.082031 -2.523438 14.40625 -1.828125 C 13.726562 -1.140625 12.914062 -0.613281 11.96875 -0.25 C 11.019531 0.113281 9.953125 0.296875 8.765625 0.296875 Z M 8.765625 -3.421875 C 9.234375 -3.421875 9.6875 -3.503906 10.125 -3.671875 C 10.5625 -3.835938 10.941406 -4.101562 11.265625 -4.46875 C 11.597656 -4.832031 11.859375 -5.296875 12.046875 -5.859375 C 12.234375 -6.429688 12.328125 -7.101562 12.328125 -7.875 C 12.328125 -8.644531 12.234375 -9.3125 12.046875 -9.875 C 11.859375 -10.4375 11.597656 -10.898438 11.265625 -11.265625 C 10.941406 -11.640625 10.5625 -11.910156 10.125 -12.078125 C 9.6875 -12.242188 9.234375 -12.328125 8.765625 -12.328125 C 8.285156 -12.328125 7.828125 -12.242188 7.390625 -12.078125 C 6.960938 -11.910156 6.582031 -11.640625 6.25 -11.265625 C 5.925781 -10.898438 5.671875 -10.4375 5.484375 -9.875 C 5.296875 -9.3125 5.203125 -8.644531 5.203125 -7.875 C 5.203125 -7.101562 5.296875 -6.429688 5.484375 -5.859375 C 5.671875 -5.296875 5.925781 -4.832031 6.25 -4.46875 C 6.582031 -4.101562 6.960938 -3.835938 7.390625 -3.671875 C 7.828125 -3.503906 8.285156 -3.421875 8.765625 -3.421875 Z M 8.765625 -3.421875 "/></g></g><g style="fill:#202d10;fill-opacity:1;"><g transform="translate(154.156006, 47.969699)"><path style="stroke:none" d="M 6.390625 0.296875 C 5.535156 0.296875 4.765625 0.171875 4.078125 -0.078125 C 3.398438 -0.328125 2.820312 -0.664062 2.34375 -1.09375 C 1.875 -1.53125 1.515625 -2.046875 1.265625 -2.640625 C 1.015625 -3.234375 0.890625 -3.890625 0.890625 -4.609375 C 0.890625 -5.316406 1.015625 -5.96875 1.265625 -6.5625 C 1.523438 -7.15625 1.910156 -7.671875 2.421875 -8.109375 C 2.941406 -8.546875 3.578125 -8.882812 4.328125 -9.125 C 5.085938 -9.375 5.972656 -9.5 6.984375 -9.5 L 10.6875 -9.5 L 10.6875 -10.25 C 10.6875 -11 10.445312 -11.554688 9.96875 -11.921875 C 9.5 -12.285156 8.847656 -12.46875 8.015625 -12.46875 C 7.421875 -12.46875 6.914062 -12.335938 6.5 -12.078125 C 6.082031 -11.828125 5.796875 -11.515625 5.640625 -11.140625 L 1.484375 -11.140625 C 1.617188 -11.773438 1.859375 -12.382812 2.203125 -12.96875 C 2.554688 -13.550781 3.003906 -14.066406 3.546875 -14.515625 C 4.085938 -14.972656 4.738281 -15.34375 5.5 -15.625 C 6.269531 -15.90625 7.160156 -16.046875 8.171875 -16.046875 C 10.265625 -16.046875 11.898438 -15.539062 13.078125 -14.53125 C 14.265625 -13.519531 14.859375 -12.039062 14.859375 -10.09375 L 14.859375 0 L 11.28125 0 L 10.84375 -1.78125 L 10.6875 -1.78125 C 10.53125 -1.5625 10.332031 -1.328125 10.09375 -1.078125 C 9.863281 -0.835938 9.566406 -0.613281 9.203125 -0.40625 C 8.847656 -0.195312 8.4375 -0.03125 7.96875 0.09375 C 7.507812 0.226562 6.984375 0.296875 6.390625 0.296875 Z M 7.421875 -3.125 C 8.390625 -3.125 9.175781 -3.394531 9.78125 -3.9375 C 10.382812 -4.476562 10.6875 -5.195312 10.6875 -6.09375 L 10.6875 -6.53125 L 7.125 -6.53125 C 6.375 -6.53125 5.835938 -6.367188 5.515625 -6.046875 C 5.203125 -5.734375 5.046875 -5.351562 5.046875 -4.90625 C 5.046875 -4.382812 5.234375 -3.957031 5.609375 -3.625 C 5.984375 -3.289062 6.585938 -3.125 7.421875 -3.125 Z M 7.421875 -3.125 "/></g></g><g style="fill:#202d10;fill-opacity:1;"><g transform="translate(168.80066, 47.969699)"><path style="stroke:none" d="M 1.78125 -15.75 L 5.34375 -15.75 L 5.796875 -13.953125 L 5.9375 -13.953125 C 6.457031 -14.628906 7.070312 -15.144531 7.78125 -15.5 C 8.488281 -15.863281 9.257812 -16.046875 10.09375 -16.046875 C 10.945312 -16.046875 11.726562 -15.898438 12.4375 -15.609375 C 13.15625 -15.316406 13.765625 -14.894531 14.265625 -14.34375 C 14.773438 -13.789062 15.171875 -13.125 15.453125 -12.34375 C 15.742188 -11.5625 15.890625 -10.664062 15.890625 -9.65625 L 15.890625 0 L 11.734375 0 L 11.734375 -9.0625 C 11.734375 -10.113281 11.484375 -10.921875 10.984375 -11.484375 C 10.492188 -12.046875 9.800781 -12.328125 8.90625 -12.328125 C 8.019531 -12.328125 7.300781 -12.023438 6.75 -11.421875 C 6.207031 -10.816406 5.9375 -10.03125 5.9375 -9.0625 L 5.9375 0 L 1.78125 0 Z M 1.78125 -15.75 "/></g></g><g style="fill:#202d10;fill-opacity:1;"><g transform="translate(184.485012, 47.969699)"><path style="stroke:none" d=""/></g></g><g style="fill:#202d10;fill-opacity:1;"><g transform="translate(189.475347, 47.969699)"><path style="stroke:none" d="M 2.078125 -20.796875 L 6.53125 -20.796875 L 6.53125 -4.015625 L 16.046875 -4.015625 L 16.046875 0 L 2.078125 0 Z M 2.078125 -20.796875 "/></g></g><g style="fill:#202d10;fill-opacity:1;"><g transform="translate(204.268531, 47.969699)"><path style="stroke:none" d="M 8.765625 0.296875 C 7.578125 0.296875 6.503906 0.113281 5.546875 -0.25 C 4.597656 -0.613281 3.785156 -1.140625 3.109375 -1.828125 C 2.441406 -2.523438 1.929688 -3.378906 1.578125 -4.390625 C 1.222656 -5.398438 1.046875 -6.5625 1.046875 -7.875 C 1.046875 -9.175781 1.222656 -10.332031 1.578125 -11.34375 C 1.929688 -12.351562 2.441406 -13.203125 3.109375 -13.890625 C 3.785156 -14.585938 4.597656 -15.117188 5.546875 -15.484375 C 6.503906 -15.859375 7.578125 -16.046875 8.765625 -16.046875 C 9.953125 -16.046875 11.019531 -15.859375 11.96875 -15.484375 C 12.914062 -15.117188 13.726562 -14.585938 14.40625 -13.890625 C 15.082031 -13.203125 15.597656 -12.351562 15.953125 -11.34375 C 16.304688 -10.332031 16.484375 -9.175781 16.484375 -7.875 C 16.484375 -6.5625 16.304688 -5.398438 15.953125 -4.390625 C 15.597656 -3.378906 15.082031 -2.523438 14.40625 -1.828125 C 13.726562 -1.140625 12.914062 -0.613281 11.96875 -0.25 C 11.019531 0.113281 9.953125 0.296875 8.765625 0.296875 Z M 8.765625 -3.421875 C 9.234375 -3.421875 9.6875 -3.503906 10.125 -3.671875 C 10.5625 -3.835938 10.941406 -4.101562 11.265625 -4.46875 C 11.597656 -4.832031 11.859375 -5.296875 12.046875 -5.859375 C 12.234375 -6.429688 12.328125 -7.101562 12.328125 -7.875 C 12.328125 -8.644531 12.234375 -9.3125 12.046875 -9.875 C 11.859375 -10.4375 11.597656 -10.898438 11.265625 -11.265625 C 10.941406 -11.640625 10.5625 -11.910156 10.125 -12.078125 C 9.6875 -12.242188 9.234375 -12.328125 8.765625 -12.328125 C 8.285156 -12.328125 7.828125 -12.242188 7.390625 -12.078125 C 6.960938 -11.910156 6.582031 -11.640625 6.25 -11.265625 C 5.925781 -10.898438 5.671875 -10.4375 5.484375 -9.875 C 5.296875 -9.3125 5.203125 -8.644531 5.203125 -7.875 C 5.203125 -7.101562 5.296875 -6.429688 5.484375 -5.859375 C 5.671875 -5.296875 5.925781 -4.832031 6.25 -4.46875 C 6.582031 -4.101562 6.960938 -3.835938 7.390625 -3.671875 C 7.828125 -3.503906 8.285156 -3.421875 8.765625 -3.421875 Z M 8.765625 -3.421875 "/></g></g><g style="fill:#202d10;fill-opacity:1;"><g transform="translate(219.952883, 47.969699)"><path style="stroke:none" d="M 8.765625 5.9375 C 7.578125 5.9375 6.554688 5.796875 5.703125 5.515625 C 4.847656 5.242188 4.128906 4.863281 3.546875 4.375 C 2.960938 3.894531 2.492188 3.332031 2.140625 2.6875 C 1.785156 2.039062 1.519531 1.34375 1.34375 0.59375 L 5.640625 0.59375 C 5.796875 1.101562 6.144531 1.503906 6.6875 1.796875 C 7.238281 2.085938 7.929688 2.234375 8.765625 2.234375 C 9.816406 2.234375 10.625 1.984375 11.1875 1.484375 C 11.75 0.992188 12.03125 0.300781 12.03125 -0.59375 L 12.03125 -2.828125 L 11.875 -2.828125 C 11.71875 -2.640625 11.515625 -2.429688 11.265625 -2.203125 C 11.023438 -1.984375 10.722656 -1.773438 10.359375 -1.578125 C 10.003906 -1.378906 9.601562 -1.210938 9.15625 -1.078125 C 8.71875 -0.953125 8.238281 -0.890625 7.71875 -0.890625 C 6.707031 -0.890625 5.789062 -1.050781 4.96875 -1.375 C 4.15625 -1.707031 3.453125 -2.191406 2.859375 -2.828125 C 2.273438 -3.472656 1.828125 -4.265625 1.515625 -5.203125 C 1.203125 -6.148438 1.046875 -7.238281 1.046875 -8.46875 C 1.046875 -9.695312 1.203125 -10.78125 1.515625 -11.71875 C 1.828125 -12.65625 2.273438 -13.445312 2.859375 -14.09375 C 3.453125 -14.738281 4.15625 -15.222656 4.96875 -15.546875 C 5.789062 -15.878906 6.707031 -16.046875 7.71875 -16.046875 C 8.6875 -16.046875 9.53125 -15.828125 10.25 -15.390625 C 10.976562 -14.953125 11.570312 -14.472656 12.03125 -13.953125 L 12.171875 -13.953125 L 12.625 -15.75 L 16.1875 -15.75 L 16.1875 -0.59375 C 16.1875 1.5 15.582031 3.109375 14.375 4.234375 C 13.164062 5.367188 11.296875 5.9375 8.765625 5.9375 Z M 8.609375 -4.609375 C 9.660156 -4.609375 10.492188 -4.953125 11.109375 -5.640625 C 11.722656 -6.335938 12.03125 -7.28125 12.03125 -8.46875 C 12.03125 -9.65625 11.722656 -10.59375 11.109375 -11.28125 C 10.492188 -11.976562 9.660156 -12.328125 8.609375 -12.328125 C 7.566406 -12.328125 6.738281 -11.976562 6.125 -11.28125 C 5.507812 -10.59375 5.203125 -9.65625 5.203125 -8.46875 C 5.203125 -7.28125 5.507812 -6.335938 6.125 -5.640625 C 6.738281 -4.953125 7.566406 -4.609375 8.609375 -4.609375 Z M 8.609375 -4.609375 "/></g></g><g style="fill:#202d10;fill-opacity:1;"><g transform="translate(135.145007, 62.258456)"><path style="stroke:none" d="M 7.859375 -7.203125 L 7.859375 0 L 6.75 0 L 6.75 -5.546875 L 4.6875 -2.65625 L 4.109375 -2.65625 L 2.078125 -5.53125 L 2.078125 0 L 0.953125 0 L 0.953125 -7.203125 L 2.203125 -7.203125 L 4.40625 -4.0625 L 6.609375 -7.203125 Z M 7.859375 -7.203125 "/></g></g><g style="fill:#202d10;fill-opacity:1;"><g transform="translate(147.743096, 62.258456)"><path style="stroke:none" d="M 2.546875 -5.28125 C 3.128906 -5.28125 3.578125 -5.1875 3.890625 -5 C 4.203125 -4.8125 4.410156 -4.5625 4.515625 -4.25 C 4.617188 -3.9375 4.671875 -3.539062 4.671875 -3.0625 L 4.671875 0 L 3.578125 0 L 3.578125 -0.5 C 3.347656 -0.28125 3.113281 -0.117188 2.875 -0.015625 C 2.644531 0.078125 2.394531 0.125 2.125 0.125 C 1.59375 0.125 1.15625 -0.0351562 0.8125 -0.359375 C 0.476562 -0.679688 0.3125 -1.117188 0.3125 -1.671875 C 0.3125 -2.242188 0.488281 -2.6875 0.84375 -3 C 1.195312 -3.3125 1.675781 -3.46875 2.28125 -3.46875 C 2.75 -3.46875 3.179688 -3.363281 3.578125 -3.15625 C 3.566406 -3.4375 3.535156 -3.65625 3.484375 -3.8125 C 3.429688 -3.976562 3.316406 -4.101562 3.140625 -4.1875 C 2.972656 -4.28125 2.726562 -4.328125 2.40625 -4.328125 L 1.609375 -4.328125 L 1.609375 -5.28125 Z M 2.296875 -0.765625 C 2.710938 -0.765625 3.140625 -0.957031 3.578125 -1.34375 L 3.578125 -2.359375 C 3.222656 -2.535156 2.859375 -2.625 2.484375 -2.625 C 2.171875 -2.625 1.914062 -2.550781 1.71875 -2.40625 C 1.519531 -2.257812 1.421875 -2.019531 1.421875 -1.6875 C 1.421875 -1.363281 1.503906 -1.128906 1.671875 -0.984375 C 1.835938 -0.835938 2.046875 -0.765625 2.296875 -0.765625 Z M 2.296875 -0.765625 "/></g></g><g style="fill:#202d10;fill-opacity:1;"><g transform="translate(156.809788, 62.258456)"><path style="stroke:none" d="M 3.46875 -5.390625 C 4.132812 -5.390625 4.628906 -5.21875 4.953125 -4.875 C 5.273438 -4.53125 5.4375 -3.96875 5.4375 -3.1875 L 5.4375 0 L 4.34375 0 L 4.34375 -3.1875 C 4.34375 -3.625 4.265625 -3.9375 4.109375 -4.125 C 3.953125 -4.3125 3.675781 -4.40625 3.28125 -4.40625 C 2.832031 -4.40625 2.367188 -4.207031 1.890625 -3.8125 L 1.890625 0 L 0.8125 0 L 0.8125 -5.28125 L 1.890625 -5.28125 L 1.890625 -4.75 C 2.390625 -5.175781 2.914062 -5.390625 3.46875 -5.390625 Z M 3.46875 -5.390625 "/></g></g><g style="fill:#202d10;fill-opacity:1;"><g transform="translate(166.787809, 62.258456)"><path style="stroke:none" d="M 2.546875 -5.28125 C 3.128906 -5.28125 3.578125 -5.1875 3.890625 -5 C 4.203125 -4.8125 4.410156 -4.5625 4.515625 -4.25 C 4.617188 -3.9375 4.671875 -3.539062 4.671875 -3.0625 L 4.671875 0 L 3.578125 0 L 3.578125 -0.5 C 3.347656 -0.28125 3.113281 -0.117188 2.875 -0.015625 C 2.644531 0.078125 2.394531 0.125 2.125 0.125 C 1.59375 0.125 1.15625 -0.0351562 0.8125 -0.359375 C 0.476562 -0.679688 0.3125 -1.117188 0.3125 -1.671875 C 0.3125 -2.242188 0.488281 -2.6875 0.84375 -3 C 1.195312 -3.3125 1.675781 -3.46875 2.28125 -3.46875 C 2.75 -3.46875 3.179688 -3.363281 3.578125 -3.15625 C 3.566406 -3.4375 3.535156 -3.65625 3.484375 -3.8125 C 3.429688 -3.976562 3.316406 -4.101562 3.140625 -4.1875 C 2.972656 -4.28125 2.726562 -4.328125 2.40625 -4.328125 L 1.609375 -4.328125 L 1.609375 -5.28125 Z M 2.296875 -0.765625 C 2.710938 -0.765625 3.140625 -0.957031 3.578125 -1.34375 L 3.578125 -2.359375 C 3.222656 -2.535156 2.859375 -2.625 2.484375 -2.625 C 2.171875 -2.625 1.914062 -2.550781 1.71875 -2.40625 C 1.519531 -2.257812 1.421875 -2.019531 1.421875 -1.6875 C 1.421875 -1.363281 1.503906 -1.128906 1.671875 -0.984375 C 1.835938 -0.835938 2.046875 -0.765625 2.296875 -0.765625 Z M 2.296875 -0.765625 "/></g></g><g style="fill:#202d10;fill-opacity:1;"><g transform="translate(175.8545, 62.258456)"><path style="stroke:none" d="M 5.421875 -5.28125 L 5.421875 0.078125 C 5.421875 0.796875 5.238281 1.359375 4.875 1.765625 C 4.507812 2.179688 3.921875 2.390625 3.109375 2.390625 C 2.671875 2.390625 2.289062 2.363281 1.96875 2.3125 C 1.65625 2.257812 1.34375 2.171875 1.03125 2.046875 L 1.03125 1 C 1.320312 1.132812 1.617188 1.234375 1.921875 1.296875 C 2.234375 1.359375 2.519531 1.390625 2.78125 1.390625 C 3.195312 1.390625 3.515625 1.332031 3.734375 1.21875 C 3.960938 1.113281 4.117188 0.960938 4.203125 0.765625 C 4.285156 0.566406 4.328125 0.304688 4.328125 -0.015625 L 4.328125 -0.640625 C 3.835938 -0.234375 3.335938 -0.03125 2.828125 -0.03125 C 2.109375 -0.03125 1.535156 -0.257812 1.109375 -0.71875 C 0.679688 -1.175781 0.46875 -1.847656 0.46875 -2.734375 C 0.46875 -3.609375 0.679688 -4.273438 1.109375 -4.734375 C 1.535156 -5.203125 2.109375 -5.4375 2.828125 -5.4375 C 3.335938 -5.4375 3.835938 -5.234375 4.328125 -4.828125 L 4.328125 -5.28125 Z M 3.015625 -1.015625 C 3.441406 -1.015625 3.878906 -1.191406 4.328125 -1.546875 L 4.328125 -3.90625 C 3.878906 -4.269531 3.441406 -4.453125 3.015625 -4.453125 C 2.546875 -4.453125 2.191406 -4.300781 1.953125 -4 C 1.710938 -3.695312 1.59375 -3.273438 1.59375 -2.734375 C 1.59375 -1.585938 2.066406 -1.015625 3.015625 -1.015625 Z M 3.015625 -1.015625 "/></g></g><g style="fill:#202d10;fill-opacity:1;"><g transform="translate(185.747084, 62.258456)"><path style="stroke:none" d="M 1.609375 -2.453125 C 1.640625 -1.941406 1.785156 -1.535156 2.046875 -1.234375 C 2.316406 -0.929688 2.734375 -0.78125 3.296875 -0.78125 C 3.546875 -0.78125 3.789062 -0.8125 4.03125 -0.875 C 4.269531 -0.945312 4.53125 -1.046875 4.8125 -1.171875 L 5.125 -0.296875 C 4.820312 -0.140625 4.515625 -0.0234375 4.203125 0.046875 C 3.898438 0.117188 3.5625 0.15625 3.1875 0.15625 C 2.601562 0.15625 2.109375 0.0390625 1.703125 -0.1875 C 1.304688 -0.425781 1.003906 -0.753906 0.796875 -1.171875 C 0.585938 -1.597656 0.484375 -2.09375 0.484375 -2.65625 C 0.484375 -3.238281 0.585938 -3.738281 0.796875 -4.15625 C 1.015625 -4.570312 1.3125 -4.890625 1.6875 -5.109375 C 2.0625 -5.328125 2.476562 -5.4375 2.9375 -5.4375 C 3.65625 -5.4375 4.21875 -5.21875 4.625 -4.78125 C 5.03125 -4.34375 5.234375 -3.710938 5.234375 -2.890625 L 5.234375 -2.453125 Z M 2.9375 -4.5 C 2.238281 -4.5 1.8125 -4.109375 1.65625 -3.328125 L 4.09375 -3.328125 C 4.0625 -3.734375 3.953125 -4.03125 3.765625 -4.21875 C 3.578125 -4.40625 3.300781 -4.5 2.9375 -4.5 Z M 2.9375 -4.5 "/></g></g><g style="fill:#202d10;fill-opacity:1;"><g transform="translate(195.146025, 62.258456)"><path style="stroke:none" d=""/></g></g><g style="fill:#202d10;fill-opacity:1;"><g transform="translate(201.023064, 62.258456)"><path style="stroke:none" d="M 5.46875 -0.9375 L 5.46875 0 L 0.953125 0 L 0.953125 -7.203125 L 5.421875 -7.203125 L 5.421875 -6.265625 L 2.078125 -6.265625 L 2.078125 -4.09375 L 4.9375 -4.09375 L 4.9375 -3.15625 L 2.078125 -3.15625 L 2.078125 -0.9375 Z M 5.46875 -0.9375 "/></g></g><g style="fill:#202d10;fill-opacity:1;"><g transform="translate(210.8397, 62.258456)"><path style="stroke:none" d="M 7.859375 -7.203125 L 7.859375 0 L 6.75 0 L 6.75 -5.546875 L 4.6875 -2.65625 L 4.109375 -2.65625 L 2.078125 -5.53125 L 2.078125 0 L 0.953125 0 L 0.953125 -7.203125 L 2.203125 -7.203125 L 4.40625 -4.0625 L 6.609375 -7.203125 Z M 7.859375 -7.203125 "/></g></g><g style="fill:#202d10;fill-opacity:1;"><g transform="translate(223.437789, 62.258456)"><path style="stroke:none" d="M 0.953125 -7.203125 L 2.078125 -7.203125 L 2.078125 0 L 0.953125 0 Z M 0.953125 -7.203125 "/></g></g></g></svg>